<?xml version="1.0" encoding="UTF-8"?>
<!DOCTYPE svg PUBLIC "-//W3C//DTD SVG 1.1//EN" "http://www.w3.org/Graphics/SVG/1.1/DTD/svg11.dtd">
<!-- Creator: CorelDRAW -->
<svg xmlns="http://www.w3.org/2000/svg" xml:space="preserve" width="2550px" height="3300px" style="shape-rendering:geometricPrecision; text-rendering:geometricPrecision; image-rendering:optimizeQuality; fill-rule:evenodd; clip-rule:evenodd"
viewBox="0 0 2550 3300"
 xmlns:xlink="http://www.w3.org/1999/xlink">
 <defs>
  <style type="text/css">
   <![CDATA[
    .str0 {stroke:#DB214C;stroke-width:5.90551}
    .str1 {stroke:#0093DD;stroke-width:11.811}
    .str2 {stroke:#1F1A17;stroke-width:11.811}
    .fil1 {fill:none}
    .fil0 {fill:white}
   ]]>
  </style>
 </defs>
 <g id="Layer_x0020_1">
  <metadata id="CorelCorpID_0Corel-Layer"/>
  <rect id="box" class="fil0 str0" x="-3.0248" y="-3.11575" width="329.265" height="605.916"/>
  <path id="body" class="fil0 str1" d="M61.2307 218.052c-29.1437,-49.324 -35.0575,-66.0992 -35.0575,-125.165 0,-92.0646 75.8197,-45.6402 133.076,-50.9917 44.6622,-4.1752 86.5559,-17.8665 119.395,4.9748 30.0047,20.8713 20.8299,156.958 -12.437,167.9 -22.4976,7.39961 -32.1343,10.2638 -103.227,12.437 -18.124,0.553937 -32.8665,-11.2654 -49.748,-12.437 -16.1339,-1.11969 -35.8689,5.75315 -52.0016,3.28228z"/>
  <path id="root" class="fil1 str2" d="M51.5291 216.45c-8.46378,18.3378 -6.41811,47.6516 -14.6835,95.439 -5.75551,33.2835 -1.82717,79.1587 0.0248031,123.13 2.23819,53.1602 13.9937,102.947 26.2902,131.83 11.1012,26.0776 29.1366,10.4398 34.6961,-28.4256 5.08346,-35.5358 20.8512,-81.7122 22.0075,-87.8894 7.31339,-39.0496 -5.86535,-110.411 13.0854,-142.486 11.6823,-19.774 37.3913,-35.5193 39.2563,-13.0854 2.81811,33.8846 18.9012,58.2602 18.9012,95.9598 0,18.9839 -12.613,173.491 -2.90787,183.196 28.7622,28.7622 65.3811,-73.9358 71.2429,-93.052 12.2138,-39.8339 38.7969,-281.079 0,-267.524 -32.7118,11.4283 -207.913,-36.0047 -207.913,15.9933"/>
 </g>
</svg>
