<?xml version="1.0" encoding="UTF-8"?>
<!DOCTYPE svg PUBLIC "-//W3C//DTD SVG 1.1//EN" "http://www.w3.org/Graphics/SVG/1.1/DTD/svg11.dtd">
<!-- Creator: CorelDRAW -->
<svg xmlns="http://www.w3.org/2000/svg" xml:space="preserve" width="2550px" height="3300px" style="shape-rendering:geometricPrecision; text-rendering:geometricPrecision; image-rendering:optimizeQuality; fill-rule:evenodd; clip-rule:evenodd"
viewBox="0 0 2550 3300"
 xmlns:xlink="http://www.w3.org/1999/xlink">
 <defs>
  <style type="text/css">
   <![CDATA[
    .str0 {stroke:#DB214C;stroke-width:5.90551}
    .str1 {stroke:#0093DD;stroke-width:11.811}
    .str2 {stroke:#1F1A17;stroke-width:11.811}
    .fil1 {fill:none}
    .fil0 {fill:white}
   ]]>
  </style>
 </defs>
 <g id="Layer_x0020_1">
  <metadata id="CorelCorpID_0Corel-Layer"/>
  <rect id="box" class="fil0 str0" x="-3.0248" y="-3.11457" width="329.265" height="605.916"/>
  <path id="body" class="fil0 str1" d="M261.985 381.634c29.1437,49.324 35.0575,66.0992 35.0575,125.165 0,92.0646 -75.8197,45.6402 -133.076,50.9917 -44.6622,4.1752 -86.5559,17.8665 -119.395,-4.9748 -30.0047,-20.8713 -20.8299,-156.958 12.437,-167.9 22.4976,-7.39961 32.1343,-10.2638 103.227,-12.437 18.124,-0.553937 32.8665,11.2654 49.748,12.437 16.1339,1.11969 35.8689,-5.75315 52.0016,-3.28228z"/>
  <path id="root" class="fil1 str2" d="M271.687 383.236c8.46378,-18.3378 6.41811,-47.6516 14.6835,-95.439 0.920079,-93.7937 -20.4248,-156.424 -42.8516,-249.872 -6.61299,-27.5575 -29.1378,-10.4386 -34.6961,28.4256 -5.08228,35.5346 -4.31457,76.624 -5.47087,82.8012 -7.31339,39.0496 5.86417,110.411 -13.0854,142.486 -11.6823,19.7728 -21.9839,15.8268 -40.9382,0.43937 -4.12205,-18.7654 -15.7606,-57.6437 -20.4142,-108.307 -6.34724,-69.111 -8.1685,-151.789 -15.4972,-159.118 -28.761,-28.761 -43.7823,74.8512 -49.6429,93.9673 -12.2138,39.8327 -38.7969,281.079 0,267.524 32.7118,-11.4283 207.913,36.0047 207.913,-15.9933"/>
 </g>
</svg>
